<?xml version="1.0" ?><svg viewBox="0 0 73.84 73.84" xmlns="http://www.w3.org/2000/svg"><defs><style>.cls-1{fill:none;stroke:#373535;stroke-linecap:round;stroke-miterlimit:10;}.cls-2{fill:#373535;}</style></defs><title/><g data-name="Layer 2" id="Layer_2"><g data-name="Layer 1" id="Layer_1-2"><path class="cls-1" d="M54.94,5.27a36.47,36.47,0,0,1,3.91,2.58"/><path class="cls-1" d="M49,2.55a36.19,36.19,0,0,1,4.07,1.72"/><path class="cls-1" d="M2.69,49.39A36.45,36.45,0,0,1,46,1.64"/><path class="cls-1" d="M11.33,62.83a36.59,36.59,0,0,1-5.14-6.35"/><path class="cls-1" d="M59.11,65.8a36.43,36.43,0,0,1-44.21.14"/><path class="cls-1" d="M62.53,11a36.42,36.42,0,0,1,1.19,50.56"/><path class="cls-1" d="M11.91,51.36A28.74,28.74,0,0,1,8,36.92"/><path class="cls-1" d="M36.92,65.79A28.82,28.82,0,0,1,14.41,55"/><path class="cls-1" d="M65.16,30.87a29,29,0,0,1,.63,6"/><path class="cls-1" d="M61.33,21.5a28.78,28.78,0,0,1,2.38,4.64"/><path class="cls-1" d="M36.92,8A28.81,28.81,0,0,1,59.24,18.6"/><path class="cls-1" d="M14.91,41.57a22.58,22.58,0,0,1-.48-4.65"/><path class="cls-1" d="M24.58,55.73a22.58,22.58,0,0,1-8.15-9.52"/><path class="cls-1" d="M36.92,59.41A22.41,22.41,0,0,1,28,57.57"/><path class="cls-1" d="M57.64,28.17a22.42,22.42,0,0,1,1.77,8.75"/><path class="cls-1" d="M50,18.6a22.61,22.61,0,0,1,6.19,6.66"/><path class="cls-1" d="M36.92,14.43A22.39,22.39,0,0,1,47,16.82"/><circle class="cls-1" cx="36.92" cy="36.92" r="13.79"/><path class="cls-2" d="M36.92,25.67A11.25,11.25,0,1,0,48.17,36.92,11.25,11.25,0,0,0,36.92,25.67Zm0,14.11a2.86,2.86,0,1,1,2.86-2.86A2.86,2.86,0,0,1,36.92,39.78Z"/></g></g></svg>